<?xml version="1.0" standalone="no"?><!DOCTYPE svg PUBLIC "-//W3C//DTD SVG 1.1//EN" "http://www.w3.org/Graphics/SVG/1.1/DTD/svg11.dtd"><svg t="1766551981058" class="icon" viewBox="0 0 1024 1024" version="1.1" xmlns="http://www.w3.org/2000/svg" p-id="15506" xmlns:xlink="http://www.w3.org/1999/xlink" width="200" height="200"><path d="M890.181818 549.841455a238.731636 238.731636 0 0 1 75.636364 20.154181v-20.200727c0-184.040727-108.450909-345.367273-264.750546-421.003636 0 27.694545-7.540364 52.922182-17.640727 75.636363a390.981818 390.981818 0 0 1 206.754909 345.367273z m-779.077818 27.694545c0-10.053818-2.513455-20.154182-2.513455-27.694545a390.981818 390.981818 0 0 1 206.75491-345.413819c-10.100364-22.714182-17.687273-47.941818-17.687273-75.636363C141.451636 204.427636 33.000727 365.754182 33.000727 549.841455c0 20.154182 2.56 37.794909 5.073455 57.94909 20.154182-15.127273 45.381818-25.181091 73.076363-30.254545zM718.754909 875.054545c-63.069091 42.821818-138.705455 65.536-219.368727 65.536-68.049455 0-131.072-17.640727-189.067637-47.895272a183.714909 183.714909 0 0 1-55.482181 52.968727c70.609455 42.821818 153.786182 70.562909 244.549818 70.562909 103.377455 0 199.214545-35.281455 274.804363-90.763636a210.013091 210.013091 0 0 1-55.435636-50.408728zM385.954909 121.204364a113.431273 113.431273 0 1 0 226.909091 0 113.431273 113.431273 0 0 0-226.909091 0zM32.954182 776.750545a113.477818 113.477818 0 1 0 226.909091 0 113.477818 113.477818 0 0 0-226.909091 0z m731.182545-25.227636a113.431273 113.431273 0 1 0 226.909091 0 113.431273 113.431273 0 0 0-226.909091 0zM295.191273 622.917818v7.586909c0 12.567273 7.540364 20.154182 20.154182 20.154182 10.100364 0 17.687273-5.026909 22.667636-15.127273l10.100364-27.741091h83.223272l7.540364 27.741091c5.026909 10.100364 12.613818 15.127273 22.714182 15.127273 12.567273 0 20.154182-5.026909 20.154182-17.640727 0-2.513455 0-7.540364-2.513455-12.567273L421.236364 456.471273c-7.586909-17.640727-17.687273-25.181091-32.768-25.181091-15.127273 0-25.227636 10.053818-32.768 25.181091l-60.509091 166.4z m93.277091-143.685818l27.741091 88.250182H360.727273l27.741091-88.250182z m131.072-45.381818c-15.127273 0-22.667636 7.540364-22.667637 22.667636v171.473455c0 15.127273 7.540364 20.154182 22.667637 20.154182 15.127273 0 22.714182-7.586909 22.714181-20.154182v-50.455273h32.768c47.941818-2.513455 73.122909-27.694545 75.636364-73.076364-2.513455-45.381818-27.741091-68.096-75.636364-73.122909h-55.435636v2.513455z m83.223272 73.076363c-2.513455 20.200727-12.567273 30.254545-30.254545 32.814546h-30.254546v-63.022546h30.254546c20.154182 0 30.254545 10.053818 30.254545 30.254546z m83.223273 143.732364c15.127273 0 22.667636-7.540364 22.667636-20.154182V459.077818c0-15.127273-7.540364-22.714182-22.667636-22.714182-15.127273 0-22.714182 7.540364-22.714182 22.714182v171.426909c2.513455 12.567273 10.100364 20.154182 22.714182 20.154182z" fill="#dbdbdb" p-id="15507"></path></svg>