<?xml version="1.0" standalone="no"?><!DOCTYPE svg PUBLIC "-//W3C//DTD SVG 1.1//EN" "http://www.w3.org/Graphics/SVG/1.1/DTD/svg11.dtd"><svg t="1766552038846" class="icon" viewBox="0 0 1024 1024" version="1.1" xmlns="http://www.w3.org/2000/svg" p-id="17858" xmlns:xlink="http://www.w3.org/1999/xlink" width="200" height="200"><path d="M816 752H208a24 24 0 0 1 0-48h608a24 24 0 0 1 0 48zM248 528a24.16 24.16 0 0 1-16.96-7.04 23.84 23.84 0 0 1 0-33.92l192-192a23.84 23.84 0 0 1 33.92 0l95.04 95.04 175.04-175.04a24 24 0 0 1 33.92 33.92l-192 192a23.84 23.84 0 0 1-33.92 0l-95.04-95.04-175.04 175.04a24.16 24.16 0 0 1-16.96 7.04z" p-id="17859" fill="#dbdbdb"></path><path d="M760 368a24 24 0 0 1-24-24V240h-104a24 24 0 0 1 0-48h128a24 24 0 0 1 24 24v128a24 24 0 0 1-24 24z" p-id="17860" fill="#dbdbdb"></path></svg>