<?xml version="1.0" standalone="no"?><!DOCTYPE svg PUBLIC "-//W3C//DTD SVG 1.1//EN" "http://www.w3.org/Graphics/SVG/1.1/DTD/svg11.dtd"><svg t="1766551004550" class="icon" viewBox="0 0 1024 1024" version="1.1" xmlns="http://www.w3.org/2000/svg" p-id="10911" xmlns:xlink="http://www.w3.org/1999/xlink" width="200" height="200"><path d="M929.753215 467.650349c0-55.814305-69.89653-108.70963-177.062761-141.511575 24.731259-109.226145 13.740442-196.126184-34.692888-223.948083-11.163629-6.526134-24.212825-9.617541-38.467861-9.617541v38.298122c7.89941 0 14.255037 1.545704 19.577634 4.465067 23.356447 13.395587 33.490887 64.402273 25.587637 130.006548-1.885567 16.143675-4.976974 33.145648-8.755788 50.491324-33.663699-8.243497-70.414965-14.597587-109.055637-18.719337-23.183636-31.771988-47.227489-60.624228-71.444154-85.869697 55.987117-52.037028 108.541043-80.545949 144.26312-80.545949v-38.297738c-47.231329 0-109.055638 33.661011-171.567352 92.052129-62.515555-58.047799-124.339863-91.365107-171.567352-91.365107v38.297738c35.549265 0 88.272163 28.337261 144.259279 80.030586-24.043853 25.245854-48.087707 53.92605-70.929559 85.698038-38.813484 4.121749-75.56475 10.475839-109.224609 18.890996-3.951625-17.173632-6.870221-33.83267-8.932439-49.804302-8.068381-65.604274 1.889407-116.610961 25.076882-130.178207 5.149786-3.091407 11.847195-4.465068 19.750446-4.465067v-38.298122c-14.427848 0-27.480884 3.091407-38.813485 9.617541-48.260518 27.821515-59.078524 114.549894-34.178293 223.43272C156.755043 359.284422 87.20068 412.008856 87.20068 467.650349c0 55.818145 69.897682 108.713855 177.062761 141.513496-24.731259 109.228449-13.740442 196.1258 34.692888 223.948467 11.163629 6.524598 24.212825 9.616005 38.640673 9.616005 47.227489 0 109.055638-33.659859 171.567352-92.050977 62.511714 58.049335 124.339863 91.367411 171.567352 91.367411 14.424008 0 27.477044-3.091407 38.813484-9.619846 48.256678-27.822667 59.078524-114.551046 34.174453-223.430032 106.478825-32.803481 176.033572-85.69919 176.033572-141.344524z m-223.602844-114.548742c-6.355626 22.155983-14.255037 44.993995-23.187476 67.835848-7.039192-13.736602-14.424008-27.477044-22.496229-41.217486-7.89941-13.737754-16.317255-27.133341-24.731259-40.185608 24.385636 3.606386 47.914895 8.071838 70.414964 13.567246z m-78.659998 182.901489c-13.394819 23.187476-27.131421 45.169111-41.386457 65.606962-25.591477 2.23119-51.520897 3.43319-77.626968 3.43319-25.93326 0-51.86652-1.202001-77.281346-3.264219-14.255037-20.437851-28.16829-42.246675-41.563109-65.261339-13.053036-22.496229-24.900231-45.338082-35.722077-68.348906 10.649035-23.014664 22.669041-46.029329 35.553106-68.525558 13.394819-23.183636 27.131421-45.167575 41.386457-65.604658 25.591477-2.232726 51.520897-3.434726 77.626969-3.434726 25.93326 0 51.86652 1.202001 77.281345 3.263067 14.255037 20.437083 28.16829 42.247059 41.563109 65.261723 13.053036 22.496229 24.900231 45.338082 35.722077 68.352746-10.821846 23.010824-22.669041 46.025488-35.553106 68.521718z m55.472522-22.323418a736.620563 736.620563 0 0 1 23.702071 68.348906c-22.50007 5.495409-46.1983 10.13444-70.756748 13.740442 8.414005-13.222007 16.828009-26.789638 24.73126-40.702891 7.89941-13.736602 15.284226-27.649855 22.323417-41.386457z m-174.144164 183.245576c-15.971632-16.490066-31.943263-34.865699-47.742084-54.957928 15.457037 0.687406 31.255857 1.202001 47.227489 1.202001 16.144443 0 32.116075-0.341783 47.745924-1.202001a670.70062 670.70062 0 0 1-47.231329 54.957928z m-127.773054-101.156228c-24.385636-3.606002-47.914895-8.072222-70.411124-13.56763 6.351786-22.154447 14.255037-44.996299 23.183635-67.838152 7.043033 13.740442 14.427848 27.480884 22.49623 41.217485 8.072222 13.740442 16.317255 27.135261 24.731259 40.188297z m126.916676-357.388973c15.971632 16.48661 31.943263 34.863011 47.742084 54.956392-15.457037-0.687022-31.255857-1.202001-47.227489-1.202001-16.144443 0-32.116075 0.343319-47.742084 1.202001a670.624198 670.624198 0 0 1 47.227489-54.956392z m-127.089488 101.154308c-8.414005 13.223927-16.828009 26.791174-24.727419 40.700203-7.89941 13.740442-15.284226 27.480884-22.327258 41.217485a735.316027 735.316027 0 0 1-23.69823-68.350442c22.496229-5.323749 46.19446-9.96086 70.752907-13.567246zM225.449957 554.55154c-60.794735-25.93326-100.123198-59.934902-100.123199-86.901191 0-26.962449 39.328463-61.136902 100.123199-86.89735 14.769631-6.355626 30.914074-12.023079 47.573112-17.346828 9.788817 33.660243 22.669041 68.694913 38.640673 104.589801-15.79882 35.722077-28.510073 70.583936-38.126079 104.074824-17.000821-5.326437-33.145264-11.163629-48.087706-17.519256z m92.396599 245.415508c-23.356447-13.394819-33.490887-64.401121-25.587636-130.008084 1.889407-16.140603 4.976974-33.145264 8.755787-50.491708 33.663699 8.245033 70.414965 14.60066 109.055638 18.721256 23.183636 31.770452 47.227489 60.622308 71.444153 85.868162-55.987117 52.039332-108.541043 80.545565-144.26312 80.545565-7.726598-0.168971-14.251196-1.716595-19.404822-4.635191z m407.366854-130.864461c8.068381 65.603122-1.889407 116.609424-25.076882 130.177054-5.149786 3.091407-11.847195 4.46622-19.750445 4.46622-35.549265 0-88.272163-28.337261-144.25928-80.03097 24.043853-25.245854 48.087707-53.924898 70.929559-85.69919 38.813484-4.120596 75.56475-10.476223 109.224609-18.890228 3.951625 17.346444 7.043033 34.005482 8.932439 49.977114z m66.117717-114.551047c-14.769631 6.355626-30.914074 12.023847-47.573112 17.346444-9.788817-33.659859-22.669041-68.694529-38.640673-104.589418 15.80266-35.722077 28.510073-70.583936 38.126078-104.074439 17.004661 5.324133 33.145264 11.163245 48.260519 17.518872 60.795119 25.92942 100.123198 59.934902 100.123198 86.89735-0.172812 26.966289-39.50089 61.140743-100.29601 86.901191z" fill="#61DAFB" p-id="10912"></path><path d="M508.304136 546.137536c43.348829 0 78.487186-35.138358 78.487186-78.487187 0-43.344988-35.138358-78.483346-78.487186-78.483346-43.344988 0-78.483346 35.138358-78.483346 78.483346 0 43.348829 35.138358 78.487186 78.483346 78.487187zM125.459247 977.863144H99.550949V1022.483098h-14.620629v-110.299881h36.513938c12.423618 0 21.968962 2.83027 28.635265 8.48697 6.716995 5.652859 10.075684 13.886372 10.075684 24.692857 0 6.870221-1.868669 12.853342-5.606008 17.957044-3.686647 5.099862-8.837969 8.913238-15.453965 11.436288l25.908299 46.816581v0.910141h-15.605655z m-25.908298-11.893278h22.347995c7.221989 0 12.953957-1.870205 17.19629-5.606776 4.29264-3.736571 6.43896-8.736586 6.43896-15.000046 0-6.816457-2.045321-12.043048-6.135963-15.679773-4.040335-3.636724-9.898648-5.480048-17.575324-5.529971H99.550949z m112.876694 58.030134c-11.11217 0-20.15252-3.636724-27.12182-10.910172-6.969684-7.323371-10.454333-17.096827-10.454333-29.316527v-2.576813c0-8.129826 1.540327-15.376392 4.620982-21.739699 3.131346-6.417071 7.474678-11.417086 13.029994-15.000046 5.606008-3.636724 11.666319-5.457006 18.181316-5.457006 10.657099 0 18.940535 3.509996 24.846851 10.529986 5.910157 7.019991 8.863315 17.069945 8.863315 30.149863v5.833352H188.866126c0.201998 8.083742 2.550699 14.623701 7.045337 19.623716 4.545329 4.946252 10.302643 7.423218 17.272711 7.423218 4.950092 0 9.139813-1.009988 12.573003-3.029963 3.437031-2.019976 6.440112-4.696635 9.016925-8.029979l8.559935 6.666688c-6.870221 10.553028-17.169792 15.833382-30.906394 15.833382z m-1.743861-73.483331c-5.656316 0-10.403642 2.069899-14.24198 6.209697-3.838338 4.093715-6.212001 9.850261-7.12099 17.273479h41.060036v-1.059911c-0.403227-7.119838-2.323356-12.626767-5.756547-16.516948-3.437031-3.936264-8.083742-5.906316-13.940519-5.906317zM311.287396 1022.483098c-0.810294-1.616748-1.466978-4.493101-1.970052-8.636739-6.516917 6.766534-14.293439 10.153641-23.333406 10.153641-8.079902 0-14.719708-2.273433-19.923256-6.820298-5.149786-4.596788-7.726598-10.403258-7.726599-17.423249 0-8.533053 3.233497-15.149817 9.696651-19.846451 6.513077-4.750399 15.656731-7.123678 27.42328-7.123678h13.636755v-6.436272c0-4.900169-1.466978-8.79035-4.393255-11.666703-2.930117-2.930117-7.250406-4.393255-12.957029-4.393255-5.000015 0-9.189737 1.259605-12.573004 3.786494-3.383267 2.523049-5.076821 5.579894-5.076821 9.166695h-14.089905c0-4.089874 1.440097-8.029979 4.31645-11.820313 2.930117-3.836417 6.870221-6.866381 11.820313-9.08989 5.000015-2.219669 10.476223-3.333344 16.436303-3.333343 9.447034 0 16.84337 2.373279 22.196689 7.123678 5.353319 4.696635 8.129826 11.186671 8.333359 19.466266v37.726691c0 7.526905 0.960064 13.510027 2.880193 17.953205v1.213521z m-23.2566-10.679756c4.393255 0 8.559934-1.136716 12.500039-3.410149 3.936264-2.273433 6.789576-5.226591 8.559934-8.863315v-16.816488h-10.986977c-17.169792 0-25.756608 5.023057-25.756609 15.073011 0 4.393255 1.466978 7.830285 4.393255 10.303411 2.930117 2.473126 6.693569 3.713529 11.290358 3.71353z m89.919633 0.75653c5.000015 0 9.370229-1.516902 13.1068-4.546865s5.80647-6.816457 6.209696-11.363322h13.26041c-0.253457 4.696635-1.870205 9.166695-4.850245 13.41018s-6.970068 7.626752-11.970083 10.149801c-4.950092 2.52689-10.199724 3.790334-15.756578 3.790334-11.159789 0-20.049985-3.713529-26.666749-11.136747-6.563-7.476982-9.846421-17.676706-9.846421-30.606854v-2.346397c0-7.980055 1.463138-15.076852 4.393255-21.286549 2.930117-6.213537 7.119838-11.036901 12.576844-14.470091 5.503089-3.437031 11.993125-5.153626 19.466266-5.153625 9.193577 0 16.820329 2.753465 22.880255 8.260394 6.10985 5.503089 9.366388 12.649809 9.773456 21.436318h-13.26041c-0.403227-5.303396-2.423203-9.646727-6.059926-13.029994-3.58296-3.43319-8.029979-5.149786-13.333375-5.149786-7.119838 0-12.649809 2.572973-16.589913 7.726599-3.886341 5.099862-5.833351 12.500039-5.833351 22.196689v2.649778c0 9.443194 1.947011 16.716642 5.833351 21.816504 3.890181 5.103702 9.447034 7.653634 16.666718 7.653633z m67.346599-91.889685v19.846451h15.303427v10.833367h-15.303427v50.829651c0 3.28342 0.683566 5.756546 2.046858 7.423218 1.363291 1.616748 3.686647 2.427043 6.970067 2.427043 1.612908 0 3.836417-0.30338 6.662847-0.910141V1022.483098c-3.686647 1.009988-7.269608 1.516902-10.756561 1.516902-6.25962 0-10.983137-1.897087-14.166711-5.683581-3.179733-3.786494-4.7696-9.166695-4.7696-16.136763v-50.829651h-14.927082v-10.833367h14.927082v-19.846451zM602.490296 1022.483098h-14.623701l-55.526286-84.996423V1022.483098h-14.619861v-110.299881h14.619861l55.679896 85.376609v-85.376609h14.470091z m74.239861 0c-0.810294-1.616748-1.466978-4.493101-1.970052-8.636739-6.516917 6.766534-14.293439 10.153641-23.333406 10.153641-8.079902 0-14.723548-2.273433-19.923256-6.820298-5.149786-4.596788-7.726598-10.403258-7.726599-17.423249 0-8.533053 3.229657-15.149817 9.696651-19.846451 6.513077-4.750399 15.656731-7.123678 27.42328-7.123678h13.636755v-6.436272c0-4.900169-1.466978-8.79035-4.397095-11.666703-2.926276-2.930117-7.246566-4.393255-12.953189-4.393255-5.000015 0-9.189737 1.259605-12.573004 3.786494-3.383267 2.523049-5.076821 5.579894-5.076821 9.166695h-14.089905c0-4.089874 1.440097-8.029979 4.31645-11.820313 2.930117-3.836417 6.870221-6.866381 11.820313-9.08989 5.000015-2.219669 10.476223-3.333344 16.436303-3.333343 9.443194 0 16.84337 2.373279 22.196689 7.123678 5.353319 4.696635 8.129826 11.186671 8.333359 19.466266v37.726691c0 7.526905 0.960064 13.510027 2.880193 17.953205v1.213521z m-23.2566-10.679756c4.393255 0 8.559934-1.136716 12.500039-3.410149 3.936264-2.273433 6.789576-5.226591 8.559934-8.863315v-16.816488h-10.986977c-17.169792 0-25.756608 5.023057-25.756609 15.073011 0 4.393255 1.466978 7.830285 4.393255 10.303411 2.930117 2.473126 6.693569 3.713529 11.290358 3.71353z m76.056303-91.133155v19.846451h15.303427v10.833367h-15.303427v50.829651c0 3.28342 0.683566 5.756546 2.046857 7.423218 1.363291 1.616748 3.686647 2.427043 6.970068 2.427043 1.612908 0 3.836417-0.30338 6.666687-0.910141V1022.483098c-3.690488 1.009988-7.273448 1.516902-10.760402 1.516902-6.25962 0-10.983137-1.897087-14.16671-5.683581-3.179733-3.786494-4.7696-9.166695-4.7696-16.136763v-50.829651h-14.923242v-10.833367h14.923242v-19.846451zM776.500052 1022.483098h-14.016941v-81.96646h14.016941z m-15.153657-103.709999c0-2.269592 0.683566-4.189721 2.046857-5.756546 1.413215-1.566825 3.483114-2.346397 6.209697-2.346397 2.730423 0 4.800322 0.779572 6.213537 2.346397s2.119822 3.486954 2.119822 5.756546c0 2.273433-0.706607 4.16668-2.119822 5.683582-1.413215 1.513062-3.483114 2.273433-6.213537 2.273432-2.726583 0-4.796482-0.760371-6.209697-2.273432-1.363291-1.516902-2.046857-3.410149-2.046857-5.683582z m64.696821 84.696883l20.299602-62.953344h14.320321L831.269807 1022.483098h-10.683597l-29.692872-81.96646h14.31648z m81.056319 20.530018c-11.109865 0-20.149832-3.636724-27.1199-10.910172-6.970068-7.323371-10.453181-17.096827-10.453181-29.316527v-2.576813c0-8.129826 1.539943-15.376392 4.61983-21.739699 3.12981-6.417071 7.473141-11.417086 13.029994-15.000046 5.606776-3.636724 11.666703-5.457006 18.17978-5.457006 10.656715 0 18.940151 3.509996 24.850307 10.529986 5.906316 7.019991 8.863315 17.069945 8.863315 30.149863v5.833352h-55.530126c0.203534 8.083742 2.549931 14.623701 7.046873 19.623716 4.543025 4.946252 10.303411 7.423218 17.269639 7.423218 4.950092 0 9.143654-1.009988 12.576844-3.029963s6.440112-4.696635 9.016925-8.029979l8.559934 6.666688c-6.870221 10.553028-17.173632 15.833382-30.910234 15.833382z m-1.743477-73.483331c-5.652859 0-10.403258 2.069899-14.239676 6.209697-3.840258 4.093715-6.213537 9.850261-7.119837 17.273479h41.056195v-1.059911c-0.403227-7.119838-2.323356-12.626767-5.756547-16.516948-3.43319-3.936264-8.079902-5.906316-13.940135-5.906317z" fill="#61DAFB" p-id="10913"></path></svg>