<?xml version="1.0" standalone="no"?><!DOCTYPE svg PUBLIC "-//W3C//DTD SVG 1.1//EN" "http://www.w3.org/Graphics/SVG/1.1/DTD/svg11.dtd"><svg t="1766553475154" class="icon" viewBox="0 0 1210 1024" version="1.1" xmlns="http://www.w3.org/2000/svg" p-id="31375" xmlns:xlink="http://www.w3.org/1999/xlink" width="236.328125" height="200"><path d="M922.763636 634.973091l-117.946181 115.991273a39.656727 39.656727 0 0 0 0 56.599272 41.472 41.472 0 0 0 57.716363 0l138.705455-136.378181a39.610182 39.610182 0 0 0 17.966545-50.827637 38.679273 38.679273 0 0 0-14.894545-18.804363l-141.591273-139.17091a41.053091 41.053091 0 0 0-57.669818 0 39.936 39.936 0 0 0 0 56.785455l117.713454 115.805091z m-735.325091 35.933091l139.217455 136.657454a41.332364 41.332364 0 0 0 57.902545 0 39.563636 39.563636 0 0 0 0-56.832l-118.178909-115.991272 118.225455-115.991273a39.563636 39.563636 0 0 0 0-56.878546 41.332364 41.332364 0 0 0-57.949091 0l-142.289455 139.17091c-1.861818 1.396364-3.770182 2.792727-5.678545 4.654545a38.679273 38.679273 0 0 0-9.216 14.196364 39.237818 39.237818 0 0 0 8.750545 44.078545c2.792727 2.792727 5.911273 5.12 9.216 6.981818zM1126.725818 0H83.456C37.376 0 0 36.631273 0 81.92v860.16C0 987.415273 37.329455 1024 83.456 1024h1043.269818c46.08 0 83.456-36.631273 83.456-81.92V81.92C1210.181818 36.584727 1172.852364 0 1126.725818 0z m0 901.026909a41.425455 41.425455 0 0 1-41.797818 41.099636H125.207273a41.425455 41.425455 0 0 1-41.797818-41.099636V327.819636h1043.269818v573.207273z m0-655.36H83.456V122.740364c0-22.760727 18.618182-41.099636 41.797818-41.099637H1084.974545c23.133091 0 41.797818 18.338909 41.797819 41.099637v122.926545zM479.883636 809.658182c19.595636 11.124364 44.683636 4.375273 55.994182-14.615273l188.369455-280.715636a40.029091 40.029091 0 0 0-14.894546-54.970182 41.611636 41.611636 0 0 0-55.994182 14.615273l-188.369454 280.669091a39.563636 39.563636 0 0 0 14.894545 55.016727z" fill="#dbdbdb" p-id="31376"></path></svg>